<svg xmlns="http://www.w3.org/2000/svg" xmlns:xlink="http://www.w3.org/1999/xlink" width="529" zoomAndPan="magnify" viewBox="0 0 396.75 396.749984" height="529" preserveAspectRatio="xMidYMid meet" version="1.0"><defs><g/><clipPath id="7a6918e09c"><path d="M 22 22 L 375 22 L 375 375 L 22 375 Z M 22 22 " clip-rule="nonzero"/></clipPath><clipPath id="2ab0f08d2a"><path d="M 198.449219 22.089844 L 374.761719 198.398438 L 198.398438 374.761719 L 22.085938 198.449219 Z M 198.449219 22.089844 " clip-rule="nonzero"/></clipPath><clipPath id="2edcd7eb25"><path d="M 198.449219 22.089844 L 374.761719 198.398438 L 198.398438 374.761719 L 22.085938 198.449219 Z M 198.449219 22.089844 " clip-rule="nonzero"/></clipPath></defs><g clip-path="url(#7a6918e09c)"><g clip-path="url(#2ab0f08d2a)"><g clip-path="url(#2edcd7eb25)"><path fill="#fefeff" d="M 198.449219 22.089844 L 374.761719 198.398438 L 198.398438 374.761719 L 22.085938 198.449219 Z M 198.449219 22.089844 " fill-opacity="1" fill-rule="nonzero"/></g></g></g><g fill="#004682" fill-opacity="1"><g transform="translate(85.529356, 156.510856)"><g><path d="M 146.09375 1.34375 C 135.757812 11.675781 124.9375 16.222656 113.625 14.984375 C 102.320312 13.753906 91.050781 7.519531 79.8125 -3.71875 L 62.015625 -21.515625 L 20.25 20.25 L 3.875 3.875 L 107.09375 -99.34375 L 141.109375 -65.328125 C 152.453125 -53.984375 158.660156 -42.578125 159.734375 -31.109375 C 160.816406 -19.648438 156.269531 -8.832031 146.09375 1.34375 Z M 129.984375 -15.265625 C 135.253906 -20.535156 137.476562 -26.21875 136.65625 -32.3125 C 135.832031 -38.40625 132.441406 -44.429688 126.484375 -50.390625 L 108.6875 -68.1875 L 76.8125 -36.3125 L 94.609375 -18.515625 C 100.566406 -12.554688 106.59375 -9.164062 112.6875 -8.34375 C 118.78125 -7.519531 124.546875 -9.828125 129.984375 -15.265625 Z M 129.984375 -15.265625 "/></g></g></g><g fill="#004682" fill-opacity="1"><g transform="translate(197.2068, 349.044279)"><g><path d="M -74.859375 -96.390625 L -48.203125 -123.046875 C -36.054688 -135.191406 -25.515625 -142.28125 -16.578125 -144.3125 C -7.640625 -146.34375 0.597656 -143.585938 8.140625 -136.046875 C 13.253906 -130.929688 16.25 -125.535156 17.125 -119.859375 C 18 -114.179688 16.785156 -109.015625 13.484375 -104.359375 L 14.0625 -103.78125 C 20.6875 -107.988281 26.859375 -109.632812 32.578125 -108.71875 C 38.296875 -107.800781 43.90625 -104.59375 49.40625 -99.09375 C 57.226562 -91.269531 60.503906 -82.351562 59.234375 -72.34375 C 57.960938 -62.332031 52.488281 -52.488281 42.8125 -42.8125 L 10.765625 -10.765625 Z M -22.78125 -80.65625 L -12.25 -91.1875 C -7.320312 -96.113281 -4.515625 -100.4375 -3.828125 -104.15625 C -3.148438 -107.882812 -4.566406 -111.503906 -8.078125 -115.015625 C -11.359375 -118.296875 -14.910156 -119.445312 -18.734375 -118.46875 C -22.566406 -117.5 -27.078125 -114.421875 -32.265625 -109.234375 L -41.8125 -99.6875 Z M -8.375 -66.25 L 13.9375 -43.9375 L 25.75 -55.75 C 30.757812 -60.757812 33.5 -65.410156 33.96875 -69.703125 C 34.4375 -73.992188 32.695312 -78.113281 28.75 -82.0625 C 21.644531 -89.164062 13.015625 -87.640625 2.859375 -77.484375 Z M -8.375 -66.25 "/></g></g></g></svg>